<?xml version="1.0" standalone="no"?><!DOCTYPE svg PUBLIC "-//W3C//DTD SVG 1.1//EN" "http://www.w3.org/Graphics/SVG/1.1/DTD/svg11.dtd"><svg t="1744345668880" class="icon" viewBox="0 0 1024 1024" version="1.1" xmlns="http://www.w3.org/2000/svg" p-id="2646" xmlns:xlink="http://www.w3.org/1999/xlink" width="200" height="200"><path d="M1024 277.333333c0-12.8-8.533333-25.6-19.2-29.866666L597.333333 42.666667c0-23.466667-19.2-42.666667-42.666666-42.666667h-85.333334c-23.466667 0-42.666667 19.2-42.666666 42.666667L19.2 247.466667c-10.666667 4.266667-19.2 17.066667-19.2 29.866666v21.333334s25.6 25.6 85.333333 53.333333V426.666667l85.333334 42.666666v-87.466666c34.133333 10.666667 72.533333 19.2 119.466666 27.733333 19.2 55.466667 49.066667 106.666667 87.466667 142.933333-160 46.933333-273.066667 177.066667-273.066667 326.4 0 192 817.066667 192 817.066667 0 0-104.533333-55.466667-198.4-140.8-262.4 76.8-44.8 140.8-96.533333 243.2-105.066666L966.4 471.466667l17.066667-38.4c-147.2 19.2-181.333333 85.333333-290.133334 134.4-14.933333-6.4-29.866667-10.666667-44.8-14.933334 38.4-36.266667 68.266667-87.466667 87.466667-142.933333C947.2 375.466667 1024 298.666667 1024 298.666667v-21.333334z m-512 149.333334c42.666667 0 83.2-2.133333 119.466667-4.266667-8.533333 21.333333-17.066667 36.266667-17.066667 36.266667s-59.733333 27.733333-104.533333 27.733333c-44.8 0-102.4-25.6-102.4-25.6s-8.533333-14.933333-17.066667-38.4c38.4 2.133333 78.933333 4.266667 121.6 4.266667zM187.733333 881.066667c0-42.666667 12.8-81.066667 34.133334-117.333334 57.6 70.4 142.933333 145.066667 288 177.066667-44.8 4.266667-247.466667-19.2-322.133334-59.733333zM814.933333 789.333333c12.8 27.733333 21.333333 59.733333 21.333334 91.733334 0-2.133333-66.133333 14.933333-185.6 0s-185.6-53.333333-185.6-53.333334 151.466667 4.266667 349.866666-38.4z m-125.866666-128c27.733333 14.933333 51.2 32 72.533333 53.333334-145.066667 32-388.266667 8.533333-460.8-32 27.733333-19.2 57.6-34.133333 91.733333-44.8 147.2 55.466667 258.133333 38.4 296.533334 23.466666z" fill="#000000" p-id="2647"></path></svg>